# xmcd
#
# Track frame offsets:
# 150
# 17658
# 36161
# 52614
# 65170
# 84467
# 98706
# 118285
# 133709
# 147887
# 168250
#
# Disc length: 2558 seconds
#
#
# Revision: 0
# Processed by: cddbd v1.5.1PL0 Copyright (c) Steve Scherf et al.
# Submitted via: FreeRIP 2.52 
#
DISCID=9009fc0b
DTITLE=Jon Christopher Davis - Lone Star Attitude
DYEAR=2003
DGENRE=Country
TTITLE0=You Gotta Love Someone
TTITLE1=The Bottom Line
TTITLE2=One Star Attitude
TTITLE3=Love Had Something Else In Mind
TTITLE4=Two Story Town
TTITLE5=Til The Silence Is Gone
TTITLE6=California
TTITLE7=From Here To Kingdom Come
TTITLE8=Baby Looks Good On You
TTITLE9=I'll Wait For You
TTITLE10=Sleep Baby Sleep
EXTD=
EXTT0=
EXTT1=
EXTT2=
EXTT3=
EXTT4=
EXTT5=
EXTT6=
EXTT7=
EXTT8=
EXTT9=
EXTT10=
PLAYORDER=
